<?xml version="1.0" standalone="no"?>
<!DOCTYPE svg PUBLIC "-//W3C//DTD SVG 20010904//EN"
 "http://www.w3.org/TR/2001/REC-SVG-20010904/DTD/svg10.dtd">
<svg version="1.0" xmlns="http://www.w3.org/2000/svg"
 width="169.000000pt" height="158.000000pt" viewBox="0 0 169.000000 158.000000"
 preserveAspectRatio="xMidYMid meet">

<g transform="translate(0.000000,158.000000) scale(0.100000,-0.100000)"
fill="currentColor" stroke="none">
<path d="M385 1568 c-7 -22 -99 -368 -205 -773 -10 -38 -30 -113 -44 -165
-105 -400 -137 -523 -134 -525 2 -1 88 -13 192 -25 148 -18 190 -20 196 -10 4
7 32 136 61 286 41 215 56 272 65 262 7 -7 80 -149 163 -315 84 -167 157 -303
164 -303 7 0 86 142 177 315 90 173 167 311 171 307 6 -6 28 -113 97 -475 l17
-89 60 6 c94 10 320 39 323 41 2 2 -298 1204 -359 1438 -5 20 -16 37 -24 37
-8 0 -41 -53 -76 -122 -34 -68 -97 -193 -141 -278 -45 -85 -114 -220 -155
-300 -42 -80 -79 -149 -84 -154 -5 -6 -98 171 -221 422 -117 237 -219 432
-226 432 -7 0 -14 -6 -17 -12z"/>
</g>
</svg>
